<?xml version="1.0" encoding="UTF-8" standalone="no"?>
<!DOCTYPE svg PUBLIC "-//W3C//DTD SVG 1.1//EN"
 "http://www.w3.org/Graphics/SVG/1.1/DTD/svg11.dtd">
<!-- Generated by graphviz version 2.40.1 (20161225.0304)
 -->
<!-- Title: snakemake_dag Pages: 1 -->
<svg width="278pt" height="116pt"
 viewBox="0.00 0.00 278.00 116.00" xmlns="http://www.w3.org/2000/svg" xmlns:xlink="http://www.w3.org/1999/xlink">
<g id="graph0" class="graph" transform="scale(1 1) rotate(0) translate(4 112)">
<title>snakemake_dag</title>
<polygon fill="#ffffff" stroke="transparent" points="-4,4 -4,-112 274,-112 274,4 -4,4"/>
<!-- 0 -->
<g id="node1" class="node">
<title>0</title>
<path fill="none" stroke="#d6d856" stroke-width="2" d="M152.5,-36C152.5,-36 117.5,-36 117.5,-36 111.5,-36 105.5,-30 105.5,-24 105.5,-24 105.5,-12 105.5,-12 105.5,-6 111.5,0 117.5,0 117.5,0 152.5,0 152.5,0 158.5,0 164.5,-6 164.5,-12 164.5,-12 164.5,-24 164.5,-24 164.5,-30 158.5,-36 152.5,-36"/>
<text text-anchor="middle" x="135" y="-15.5" font-family="sans" font-size="10.00" fill="#000000">zipf_test</text>
</g>
<!-- 1 -->
<g id="node2" class="node">
<title>1</title>
<path fill="none" stroke="#d85656" stroke-width="2" d="M66,-108C66,-108 12,-108 12,-108 6,-108 0,-102 0,-96 0,-96 0,-84 0,-84 0,-78 6,-72 12,-72 12,-72 66,-72 66,-72 72,-72 78,-78 78,-84 78,-84 78,-96 78,-96 78,-102 72,-108 66,-108"/>
<text text-anchor="middle" x="39" y="-93" font-family="sans" font-size="10.00" fill="#000000">count_words</text>
<text text-anchor="middle" x="39" y="-82" font-family="sans" font-size="10.00" fill="#000000">file: isles</text>
</g>
<!-- 1&#45;&gt;0 -->
<g id="edge1" class="edge">
<title>1&#45;&gt;0</title>
<path fill="none" stroke="#c0c0c0" stroke-width="2" d="M63.2249,-71.8314C75.1628,-62.8779 89.7256,-51.9558 102.606,-42.2955"/>
<polygon fill="#c0c0c0" stroke="#c0c0c0" stroke-width="2" points="104.8829,-44.9629 110.7829,-36.1628 100.6829,-39.3629 104.8829,-44.9629"/>
</g>
<!-- 2 -->
<g id="node3" class="node">
<title>2</title>
<path fill="none" stroke="#d85656" stroke-width="2" d="M162,-108C162,-108 108,-108 108,-108 102,-108 96,-102 96,-96 96,-96 96,-84 96,-84 96,-78 102,-72 108,-72 108,-72 162,-72 162,-72 168,-72 174,-78 174,-84 174,-84 174,-96 174,-96 174,-102 168,-108 162,-108"/>
<text text-anchor="middle" x="135" y="-93" font-family="sans" font-size="10.00" fill="#000000">count_words</text>
<text text-anchor="middle" x="135" y="-82" font-family="sans" font-size="10.00" fill="#000000">file: abyss</text>
</g>
<!-- 2&#45;&gt;0 -->
<g id="edge2" class="edge">
<title>2&#45;&gt;0</title>
<path fill="none" stroke="#c0c0c0" stroke-width="2" d="M135,-71.8314C135,-64.131 135,-54.9743 135,-46.4166"/>
<polygon fill="#c0c0c0" stroke="#c0c0c0" stroke-width="2" points="138.5001,-46.4132 135,-36.4133 131.5001,-46.4133 138.5001,-46.4132"/>
</g>
<!-- 3 -->
<g id="node4" class="node">
<title>3</title>
<path fill="none" stroke="#d85656" stroke-width="2" d="M258,-108C258,-108 204,-108 204,-108 198,-108 192,-102 192,-96 192,-96 192,-84 192,-84 192,-78 198,-72 204,-72 204,-72 258,-72 258,-72 264,-72 270,-78 270,-84 270,-84 270,-96 270,-96 270,-102 264,-108 258,-108"/>
<text text-anchor="middle" x="231" y="-93" font-family="sans" font-size="10.00" fill="#000000">count_words</text>
<text text-anchor="middle" x="231" y="-82" font-family="sans" font-size="10.00" fill="#000000">file: last</text>
</g>
<!-- 3&#45;&gt;0 -->
<g id="edge3" class="edge">
<title>3&#45;&gt;0</title>
<path fill="none" stroke="#c0c0c0" stroke-width="2" d="M206.7751,-71.8314C194.8372,-62.8779 180.2744,-51.9558 167.394,-42.2955"/>
<polygon fill="#c0c0c0" stroke="#c0c0c0" stroke-width="2" points="169.3171,-39.3629 159.2171,-36.1628 165.1171,-44.9629 169.3171,-39.3629"/>
</g>
</g>
</svg>
